<svg xmlns="http://www.w3.org/2000/svg" width="67.827" height="50" viewBox="0 0 67.827 50">
  <path id="Path_519" data-name="Path 519" d="M359.589-637.937H349.137l-.053-.212-.4-2.18a7.107,7.107,0,0,0-7-5.836H306.111a7.091,7.091,0,0,0-5.458,2.554,7.1,7.1,0,0,0-1.536,5.831l9.41,37.539a5.379,5.379,0,0,0,5.224,4.076h42.393a2.686,2.686,0,0,0,2.132-1.041,2.684,2.684,0,0,0,.55-2.014,3.332,3.332,0,0,0,.15-.438l7.733-29.748A7.236,7.236,0,0,0,359.589-637.937ZM319.181-632l-7.579,27.4a1.626,1.626,0,0,1-1.826,1.109l-8.7-34.683a5.1,5.1,0,0,1,1.109-4.16,5.1,5.1,0,0,1,3.922-1.835H341.69a5.107,5.107,0,0,1,5.028,4.194l.371,2.033H326.3A7.236,7.236,0,0,0,319.181-632Zm32.951,28.238h-5.473v-12.967c0-4.633-3.152-8-7.494-8-4.442,0-7.545,3.288-7.545,8a7.65,7.65,0,0,0,8.046,7.945H344v5.022h-4.381c-7.96,0-13.519-5.312-13.519-12.917a12.709,12.709,0,0,1,13.018-12.968c7.543,0,13.017,5.369,13.017,12.768Z" transform="translate(-299.001 646.164)" fill="#ad0a22"/>
</svg>
