<svg xmlns="http://www.w3.org/2000/svg" width="205.939" height="50" viewBox="0 0 205.939 50">
  <g id="Group_5329" data-name="Group 5329" transform="translate(-299.001 646.164)">
    <g id="Group_5326" data-name="Group 5326" transform="translate(299.001 -646.164)">
      <rect id="Rectangle_603" data-name="Rectangle 603" width="31.98" height="33.686" transform="translate(25.044 12.924)" fill="#fff"/>
      <g id="Group_5325" data-name="Group 5325" transform="translate(0)">
        <path id="Path_519" data-name="Path 519" d="M359.589-637.937H349.137l-.053-.212-.4-2.18a7.107,7.107,0,0,0-7-5.836H306.111a7.091,7.091,0,0,0-5.458,2.554,7.1,7.1,0,0,0-1.536,5.831l9.41,37.539a5.379,5.379,0,0,0,5.224,4.076h42.393a2.686,2.686,0,0,0,2.132-1.041,2.684,2.684,0,0,0,.55-2.014,3.332,3.332,0,0,0,.15-.438l7.733-29.748A7.236,7.236,0,0,0,359.589-637.937ZM319.181-632l-7.579,27.4a1.626,1.626,0,0,1-1.826,1.109l-8.7-34.683a5.1,5.1,0,0,1,1.109-4.16,5.1,5.1,0,0,1,3.922-1.835H341.69a5.107,5.107,0,0,1,5.028,4.194l.371,2.033H326.3A7.236,7.236,0,0,0,319.181-632Zm32.951,28.238h-5.473v-12.967c0-4.633-3.152-8-7.494-8-4.442,0-7.545,3.288-7.545,8a7.65,7.65,0,0,0,8.046,7.945H344v5.022h-4.381c-7.96,0-13.519-5.312-13.519-12.917a12.709,12.709,0,0,1,13.018-12.968c7.543,0,13.017,5.369,13.017,12.768Z" transform="translate(-299.001 646.164)" fill="#ad0a22"/>
      </g>
    </g>
    <g id="Group_5328" data-name="Group 5328" transform="translate(373.426 -632.807)">
      <g id="Group_5327" data-name="Group 5327">
        <path id="Path_520" data-name="Path 520" d="M482.593-613.97h2.077c.726,0,1,.275,1,1V-597.2c0,.726-.275,1-1,1h-2.077c-.776,0-1-.275-1-1v-15.766C481.592-613.695,481.817-613.97,482.593-613.97Z" transform="translate(-480.263 613.97)" fill="#353535"/>
        <path id="Path_521" data-name="Path 521" d="M516.214-612.944v15.716c0,.776-.225,1.026-1,1.026h-2.027a1.067,1.067,0,0,1-1-.475l-4.905-7.458a16.476,16.476,0,0,1-2.1-4.68H505a28.058,28.058,0,0,1,.7,5.606v5.981c0,.776-.251,1.026-1.026,1.026h-1.852c-.776,0-1.026-.25-1.026-1.026v-15.716c0-.776.25-1.026,1.026-1.026H504.9a1.1,1.1,0,0,1,.976.475l5.005,7.582a18.227,18.227,0,0,1,1.426,2.728c.276.651.6,1.677.626,1.752h.2a18.2,18.2,0,0,1-.8-5.53v-5.981c0-.776.251-1.026,1.026-1.026h1.852C515.989-613.97,516.214-613.72,516.214-612.944Z" transform="translate(-492.086 613.97)" fill="#353535"/>
        <path id="Path_522" data-name="Path 522" d="M547.98-613.97h2.077c.726,0,1,.275,1,1V-597.2c0,.726-.275,1-1,1H547.98c-.775,0-1-.275-1-1v-15.766C546.979-613.695,547.2-613.97,547.98-613.97Z" transform="translate(-518.522 613.97)" fill="#353535"/>
        <path id="Path_523" data-name="Path 523" d="M578.229-612.944v1.677c0,.776-.25,1-1.026,1h-3.9v13.038c0,.776-.251,1.026-1.026,1.026h-2.027c-.776,0-1-.25-1-1.026v-13.038h-3.929c-.775,0-1.026-.225-1.026-1v-1.677c0-.776.25-1.026,1.026-1.026H577.2C577.98-613.97,578.229-613.72,578.229-612.944Z" transform="translate(-528.651 613.97)" fill="#353535"/>
        <path id="Path_524" data-name="Path 524" d="M606.37-613.97h2.077c.726,0,1,.275,1,1V-597.2c0,.726-.275,1-1,1H606.37c-.775,0-1-.275-1-1v-15.766C605.369-613.695,605.594-613.97,606.37-613.97Z" transform="translate(-552.686 613.97)" fill="#353535"/>
        <path id="Path_525" data-name="Path 525" d="M638.859-596.2h-1.877c-1.226,0-1.627-.2-1.852-.926l-.775-2.352h-6.181l-.8,2.352c-.275.726-.6.926-1.827.926h-1.727c-.7,0-.926-.325-.675-1l5.981-15.916c.225-.676.526-.851,1.251-.851H632.3c.726,0,1.026.175,1.251.8l5.981,15.966C639.785-596.528,639.56-596.2,638.859-596.2ZM631.4-609.766l-.025-.475h-.25a10.355,10.355,0,0,1-.576,3.553l-1.3,3.9H633.3l-1.3-3.879A15.116,15.116,0,0,1,631.4-609.766Z" transform="translate(-563.029 613.97)" fill="#353535"/>
        <path id="Path_526" data-name="Path 526" d="M675.587-612.944v1.677c0,.776-.25,1-1.026,1h-3.9v13.038c0,.776-.251,1.026-1.026,1.026H667.6c-.776,0-1-.25-1-1.026v-13.038h-3.929c-.775,0-1.026-.225-1.026-1v-1.677c0-.776.251-1.026,1.026-1.026h11.887C675.337-613.97,675.587-613.72,675.587-612.944Z" transform="translate(-585.616 613.97)" fill="#353535"/>
        <path id="Path_527" data-name="Path 527" d="M703.727-613.97H705.8c.726,0,1,.275,1,1V-597.2c0,.726-.276,1-1,1h-2.077c-.775,0-1-.275-1-1v-15.766C702.726-613.695,702.951-613.97,703.727-613.97Z" transform="translate(-609.651 613.97)" fill="#353535"/>
        <path id="Path_528" data-name="Path 528" d="M736.587-612.969l-5.706,15.916a1.078,1.078,0,0,1-1.251.851H727.6c-.726,0-1.026-.175-1.252-.8l-5.731-15.966c-.25-.675-.025-1,.676-1h1.877c1.276,0,1.627.2,1.852.926l2.927,9.334c.225.8.476,1.952.576,2.552l.05.45h.2a17.4,17.4,0,0,1,.626-2.978l2.878-9.359c.225-.726.6-.926,1.827-.926h1.827C736.612-613.97,736.837-613.645,736.587-612.969Z" transform="translate(-620.064 613.97)" fill="#353535"/>
        <path id="Path_529" data-name="Path 529" d="M777.692-612.944v1.677c0,.776-.25,1-1.026,1h-7.007v3.228h5.756c.775,0,1.026.225,1.026,1v1.677c0,.776-.25,1.026-1.026,1.026h-5.756v3.4h7.257c.726,0,1.026.3,1.026,1.026v1.677c0,.776-.251,1.026-1.026,1.026H766.606c-.776,0-1.026-.25-1.026-1.026v-15.716c0-.776.25-1.026,1.026-1.026h10.06C777.442-613.97,777.692-613.72,777.692-612.944Z" transform="translate(-646.428 613.97)" fill="#353535"/>
        <path id="Path_530" data-name="Path 530" d="M485.977-554v.691c0,.352-.127.479-.48.479h-2.426v7.885c0,.353-.127.479-.48.479h-.818c-.353,0-.48-.127-.48-.479v-7.885h-2.426c-.353,0-.48-.127-.48-.479V-554c0-.353.127-.48.48-.48H485.5C485.85-554.482,485.977-554.355,485.977-554Z" transform="translate(-478.388 579.163)" fill="#353535"/>
        <path id="Path_531" data-name="Path 531" d="M511.821-554v9.055c0,.353-.141.479-.493.479h-.8c-.353,0-.48-.127-.48-.479v-3.766h-4.175v3.766c0,.353-.127.479-.48.479h-.8c-.353,0-.494-.127-.494-.479V-554c0-.353.141-.48.494-.48h.8c.353,0,.48.127.48.48v3.639h4.175V-554c0-.353.127-.48.48-.48h.8C511.68-554.482,511.821-554.355,511.821-554Z" transform="translate(-493.428 579.163)" fill="#353535"/>
        <path id="Path_532" data-name="Path 532" d="M539.008-544.488h-.734c-.578,0-.761-.085-.874-.423l-.649-1.82h-3.893l-.663,1.82c-.112.338-.3.423-.874.423h-.649c-.324,0-.438-.155-.324-.466l3.526-9.168a.509.509,0,0,1,.592-.395h.747c.339,0,.48.084.592.381l3.526,9.182C539.445-544.643,539.332-544.488,539.008-544.488Zm-4.147-8.152-.014-.24h-.1a5.152,5.152,0,0,1-.31,1.706l-1.086,2.99h2.905l-1.072-2.976A8.913,8.913,0,0,1,534.861-552.64Z" transform="translate(-508.765 579.183)" fill="#353535"/>
        <path id="Path_533" data-name="Path 533" d="M562.1-554v.691c0,.352-.127.479-.48.479H559.2v7.885c0,.353-.127.479-.48.479H557.9c-.353,0-.48-.127-.48-.479v-7.885h-2.426c-.353,0-.48-.127-.48-.479V-554c0-.353.127-.48.48-.48h6.629C561.975-554.482,562.1-554.355,562.1-554Z" transform="translate(-522.93 579.163)" fill="#353535"/>
        <path id="Path_534" data-name="Path 534" d="M595.184-545.907c1.424,0,2.172-.7,2.172-1.988V-554c0-.353.127-.48.479-.48h.8c.352,0,.479.127.479.48v6.093c0,2.257-1.4,3.653-3.935,3.653s-3.95-1.4-3.95-3.653V-554c0-.353.127-.48.48-.48h.818c.353,0,.479.127.479.48v6.108C593.011-546.612,593.759-545.907,595.184-545.907Z" transform="translate(-544.416 579.163)" fill="#353535"/>
        <path id="Path_535" data-name="Path 535" d="M627.242-554v9.055c0,.353-.127.479-.48.479h-.8a.517.517,0,0,1-.465-.24l-3.456-5.106a12.4,12.4,0,0,1-1.157-2.369H620.8a17.817,17.817,0,0,1,.31,2.807v4.429c0,.353-.127.479-.479.479h-.748c-.353,0-.494-.127-.494-.479V-554c0-.353.141-.48.494-.48h.8a.506.506,0,0,1,.466.226l3.427,5.078a12.312,12.312,0,0,1,1.185,2.4h.085a18.28,18.28,0,0,1-.31-2.849V-554c0-.353.127-.48.48-.48h.748C627.114-554.482,627.242-554.355,627.242-554Z" transform="translate(-560.887 579.163)" fill="#353535"/>
        <path id="Path_536" data-name="Path 536" d="M648.133-554.482h.8c.353,0,.48.127.48.48v9.055c0,.353-.127.479-.48.479h-.8c-.353,0-.494-.127-.494-.479V-554C647.639-554.355,647.78-554.482,648.133-554.482Z" transform="translate(-577.419 579.163)" fill="#353535"/>
        <path id="Path_537" data-name="Path 537" d="M666.923-554v.691c0,.352-.127.479-.48.479h-2.426v7.885c0,.353-.127.479-.48.479h-.818c-.353,0-.479-.127-.479-.479v-7.885h-2.426c-.353,0-.48-.127-.48-.479V-554c0-.353.127-.48.48-.48h6.629C666.8-554.482,666.923-554.355,666.923-554Z" transform="translate(-584.263 579.163)" fill="#353535"/>
        <path id="Path_538" data-name="Path 538" d="M691.626-554v.691c0,.352-.141.479-.494.479h-4.316v2.469h3.654c.352,0,.479.127.479.48v.691c0,.352-.127.48-.479.48h-3.654v2.6h4.471c.353,0,.48.127.48.48v.691c0,.353-.127.479-.48.479h-5.755c-.352,0-.493-.127-.493-.479V-554c0-.353.141-.48.493-.48h5.6C691.485-554.482,691.626-554.355,691.626-554Z" transform="translate(-599.302 579.163)" fill="#353535"/>
        <path id="Path_539" data-name="Path 539" d="M712.308-554.992a3.566,3.566,0,0,1,3.709,2.13c.141.3.057.507-.268.648l-.776.339c-.324.127-.437.085-.606-.24a2.027,2.027,0,0,0-2.059-1.185c-1.368,0-2.045.437-2.045,1.3-.085.748.748,1.086,1.5,1.2.437.085,1.453.2,1.974.3a4.13,4.13,0,0,1,1.777.79,2.682,2.682,0,0,1,.776,2c0,1.918-1.482,3.159-4.02,3.159-2.13,0-3.272-.775-3.878-2.355-.127-.353-.043-.507.3-.621l.776-.282c.324-.113.451-.042.606.3a2.149,2.149,0,0,0,2.2,1.311c1.5,0,2.242-.493,2.242-1.467a1.273,1.273,0,0,0-1.1-1.143,7.9,7.9,0,0,0-1.128-.169,12.835,12.835,0,0,1-1.509-.226,3.367,3.367,0,0,1-1.354-.578,2.38,2.38,0,0,1-.973-2.116C708.443-553.751,709.839-554.992,712.308-554.992Z" transform="translate(-612.93 579.461)" fill="#353535"/>
        <path id="Path_540" data-name="Path 540" d="M751.242-545.907c1.425,0,2.172-.7,2.172-1.988V-554c0-.353.127-.48.479-.48h.8c.353,0,.48.127.48.48v6.093c0,2.257-1.4,3.653-3.935,3.653s-3.949-1.4-3.949-3.653V-554c0-.353.127-.48.48-.48h.818c.352,0,.479.127.479.48v6.108C749.07-546.612,749.818-545.907,751.242-545.907Z" transform="translate(-635.728 579.163)" fill="#353535"/>
        <path id="Path_541" data-name="Path 541" d="M778.436-554.992a3.567,3.567,0,0,1,3.709,2.13c.141.3.057.507-.268.648l-.776.339c-.324.127-.437.085-.607-.24a2.026,2.026,0,0,0-2.059-1.185c-1.368,0-2.045.437-2.045,1.3-.085.748.748,1.086,1.495,1.2.437.085,1.453.2,1.975.3a4.13,4.13,0,0,1,1.777.79,2.683,2.683,0,0,1,.776,2c0,1.918-1.481,3.159-4.02,3.159-2.13,0-3.272-.775-3.879-2.355-.127-.353-.042-.507.3-.621l.775-.282c.325-.113.451-.042.607.3a2.149,2.149,0,0,0,2.2,1.311c1.5,0,2.243-.493,2.243-1.467a1.273,1.273,0,0,0-1.1-1.143,7.9,7.9,0,0,0-1.128-.169,12.822,12.822,0,0,1-1.509-.226,3.367,3.367,0,0,1-1.354-.578,2.38,2.38,0,0,1-.973-2.116C774.571-553.751,775.967-554.992,778.436-554.992Z" transform="translate(-651.623 579.461)" fill="#353535"/>
      </g>
    </g>
  </g>
</svg>
