<svg id="Group_5" data-name="Group 5" xmlns="http://www.w3.org/2000/svg" width="54.261" height="40" viewBox="0 0 54.261 40">
  <rect id="Rectangle_11" data-name="Rectangle 11" width="25.584" height="26.949" transform="translate(20.035 10.34)" fill="#fff"/>
  <g id="Group_4" data-name="Group 4" transform="translate(0)">
    <path id="Path_1" data-name="Path 1" d="M1539.958-339.6H1531.6l-.042-.169-.318-1.744a5.686,5.686,0,0,0-5.6-4.669h-28.463a5.672,5.672,0,0,0-4.367,2.044,5.677,5.677,0,0,0-1.229,4.665l7.528,30.031a4.3,4.3,0,0,0,4.179,3.261H1537.2a2.15,2.15,0,0,0,1.706-.833,2.147,2.147,0,0,0,.44-1.611,2.673,2.673,0,0,0,.12-.35l6.187-23.8A5.789,5.789,0,0,0,1539.958-339.6Zm-32.327,4.752-6.063,21.922a1.3,1.3,0,0,1-1.46.888l-6.957-27.746a4.078,4.078,0,0,1,.888-3.328,4.074,4.074,0,0,1,3.137-1.468h28.463a4.086,4.086,0,0,1,4.022,3.355l.3,1.626h-16.63A5.789,5.789,0,0,0,1507.631-334.847Zm26.36,22.591h-4.379V-322.63c0-3.706-2.521-6.4-5.995-6.4-3.553,0-6.036,2.631-6.036,6.4a6.12,6.12,0,0,0,6.437,6.356h3.464v4.017h-3.5c-6.368,0-10.816-4.249-10.816-10.334a10.167,10.167,0,0,1,10.415-10.374c6.034,0,10.414,4.3,10.414,10.214Z" transform="translate(-1491.487 346.181)" fill="#ad0a22"/>
  </g>
</svg>
