<svg id="Group_5574" data-name="Group 5574" xmlns="http://www.w3.org/2000/svg" width="18" height="18" viewBox="0 0 18 18">
  <path id="Path_759" data-name="Path 759" d="M18,9A9,9,0,1,0,7.594,17.891V11.6H5.309V9H7.594V7.017a3.176,3.176,0,0,1,3.4-3.5,13.84,13.84,0,0,1,2.015.176V5.906H11.873a1.3,1.3,0,0,0-1.467,1.405V9h2.5l-.4,2.6h-2.1v6.289A9,9,0,0,0,18,9Z" fill="#1877f2"/>
  <path id="Path_760" data-name="Path 760" d="M309.195,208.086l.4-2.6h-2.5V203.8a1.3,1.3,0,0,1,1.467-1.405H309.7v-2.215a13.84,13.84,0,0,0-2.015-.176,3.176,3.176,0,0,0-3.4,3.5v1.983H302v2.6h2.285v6.289a9.095,9.095,0,0,0,2.813,0v-6.289Z" transform="translate(-296.691 -196.484)" fill="#fff"/>
</svg>
